<svg height="202" width="202" xmlns="http://www.w3.org/2000/svg"><rect fill="#34495e" height="165" rx="5" width="161" x="21" y="19"/><rect fill="#e1f4ff" height="48.094" rx="5" width="144.75" x="29.125" y="27.156"/><g fill-rule="evenodd"><path d="m162.485 54.045v9.78l.813 3.26a3.512 3.512 0 0 0 2.439-2.445v-11.41l-.813-.815zm-.813 9.78h-10.572l-3.253.815a3.512 3.512 0 0 0 2.44 2.445h12.2zm-10.572-.815v-8.965l-2.439-1.63-.814.815v10.6zm11.384-26.9h-12.2a3.514 3.514 0 0 0 -2.44 2.445l3.253.815h10.571zm-14.637 3.26v10.6l.814.815 2.439-2.445v-8.15zm17.076 11.41.813-.815v-11.405a3.515 3.515 0 0 0 -2.439-2.445l-.813 3.26v8.965z" fill="#34495e"/><path d="m168.875 125.75h-35.531a5 5 0 0 1 -5-5v-35.625a5 5 0 0 1 5-5h35.531a5 5 0 0 1 5 5v35.625a5 5 0 0 1 -5 5zm-49.594 50.531h-35.562a5 5 0 0 1 -5-5v-35.625a5 5 0 0 1 5-5h35.562a5 5 0 0 1 5 5v35.625a5 5 0 0 1 -5 5zm0-50.531h-35.562a5 5 0 0 1 -5-5v-35.625a5 5 0 0 1 5-5h35.562a5 5 0 0 1 5 5v35.625a5 5 0 0 1 -5 5zm-49.625 50.531h-35.531a5 5 0 0 1 -5-5v-35.625a5 5 0 0 1 5-5h35.531a5 5 0 0 1 5 5v35.625a5 5 0 0 1 -5 5zm0-50.531h-35.531a5 5 0 0 1 -5-5v-35.625a5 5 0 0 1 5-5h35.531a5 5 0 0 1 5 5v35.625a5 5 0 0 1 -5 5z" fill="#fff"/><path d="m160.031 104.594h-7.312v7.312h-3.25v-7.312h-7.313v-3.281h7.313v-7.313h3.25v7.313h7.312zm-52.715 6.5-5.816-5.826-5.816 5.832-2.326-2.33 5.816-5.826-5.816-5.826 2.326-2.331 5.816 5.826 5.816-5.826 2.326 2.331-5.816 5.826 5.816 5.826zm-64.347 40.75h17.875v3.281h-17.875zm7.313-39.938v-3.25h3.25v3.25zm-7.312-10.593h17.874v3.281h-17.875v-3.281zm7.311-7.313h3.25v3.25h-3.25zm53.657 74.125h-4.875v-4.875h4.876v4.875z" fill="#34495e"/></g><rect fill="#ff8400" height="45.625" rx="5" width="45.531" x="128.344" y="130.656"/><path d="m142.156 155.906h17.875v3.282h-17.875zm0-8.156h17.875v3.281h-17.875z" fill="#fff" fill-rule="evenodd"/></svg>